<svg version="1.2" xmlns="http://www.w3.org/2000/svg" viewBox="0 0 25 25" width="25" height="25">
	<title>Layer</title>
	<path id="Layer" fill='none' stroke='#1e1e1e'  stroke-width="2.5"  stroke-linecap="round" stroke-linejoin="round" class="s0" d="m20 14v7q0 0.4-0.2 0.8-0.1 0.3-0.4 0.6-0.3 0.3-0.6 0.4-0.4 0.2-0.8 0.2h-14q-0.4 0-0.8-0.2-0.3-0.1-0.6-0.4-0.3-0.3-0.4-0.6-0.2-0.4-0.2-0.8v-14q0-0.4 0.2-0.8 0.1-0.3 0.4-0.6 0.3-0.3 0.6-0.4 0.4-0.2 0.8-0.2h7"/>
	<path id="Layer" fill='none' stroke='#1e1e1e' stroke-width="2.5" stroke-linecap="round"  stroke-linejoin="round" class="s0" d="m18.5 3.5c0.4-0.4 0.9-0.6 1.5-0.6 0.6 0 1.1 0.2 1.5 0.6 0.4 0.4 0.6 0.9 0.6 1.5 0 0.6-0.2 1.1-0.6 1.5l-9.5 9.5-4 1 1-4z"/>
</svg>